<svg width="400" height="209" viewBox="0 0 400 209" fill="none" xmlns="http://www.w3.org/2000/svg">
<path d="M395.445 184.117C391.304 173.217 384.472 162.908 375.363 153.429C374.12 152.126 372.671 150.704 371.222 149.4C360.663 139.329 347.62 130.324 332.506 122.504C330.642 121.437 328.572 120.489 326.502 119.541C310.353 111.84 291.926 105.56 272.051 101.057C269.566 100.465 267.082 99.9908 264.598 99.5169C244.722 95.4883 223.19 93.237 201.037 93C199.795 93 198.346 93 197.104 93C195.861 93 194.412 93 193.17 93C170.81 93.237 149.485 95.4883 129.609 99.5169C127.125 99.9908 124.641 100.583 122.156 101.057C102.281 105.56 83.8542 111.84 67.7053 119.541C65.6349 120.489 63.5645 121.556 61.7012 122.504C46.5875 130.324 33.3371 139.329 22.9852 149.4C21.5359 150.704 20.2937 152.126 18.8445 153.429C9.73483 162.908 2.90264 173.217 -1.23811 184.117C-1.85922 185.658 -2.27333 187.198 -2.89444 188.739C-4.96481 195.374 -6 202.128 -6 209H400C400 202.128 398.965 195.255 396.894 188.739C396.48 187.198 396.066 185.658 395.445 184.117Z" fill="#0F264C"/>
<path d="M50.6201 173.478C50.6201 192.983 63.4064 208.742 79.132 208.742H107.644C123.37 208.742 136.009 192.854 136.009 173.478C136.009 153.973 123.223 138.214 107.497 138.214C107.203 138.214 107.056 138.214 106.762 138.214H79.132C63.2594 138.214 50.6201 154.102 50.6201 173.478Z" fill="#402B2B"/>
<path d="M274.01 173.09C274.01 192.595 286.796 208.354 302.522 208.354H331.034C346.759 208.354 359.398 192.466 359.398 173.09C359.398 153.585 346.612 137.826 330.887 137.826C330.593 137.826 330.446 137.826 330.152 137.826H302.522C286.649 137.826 274.01 153.585 274.01 173.09Z" fill="#F48767"/>
<path d="M48.71 170.12L163.492 169.861L150.265 163.015L63.4068 163.144L48.71 170.12Z" fill="#402B2B"/>
<path d="M-59.6064 112.638L-59.4595 177.353L33.7186 177.224L63.4062 163.145L150.265 163.015L177.013 176.966L366.602 176.578C369.689 176.578 372.187 174.383 372.187 171.67L372.04 111.863L-59.6064 112.638Z" fill="#F36F49"/>
<path d="M143.506 127.363L292.238 127.105L291.945 8.65453C291.945 3.87517 287.535 0 281.951 0L143.065 0.25836L143.506 127.363Z" fill="#F48767"/>
<path d="M-88.4111 127.88L143.358 127.493L143.064 0.387695L-78.8582 0.775195C-84.296 0.775195 -88.7051 4.65034 -88.7051 9.55887L-88.4111 127.88Z" fill="#F06A5B"/>
<path d="M255.2 173.09C255.2 192.595 242.56 208.354 226.835 208.354H198.47V196.47C188.035 196.47 179.511 186.007 179.511 173.09C179.511 160.173 187.888 149.71 198.323 149.71V137.826H226.688C242.413 137.955 255.053 153.714 255.2 173.09Z" fill="#F48767"/>
<path d="M174.956 173.349C174.956 189.366 185.391 202.284 198.324 202.154C211.257 202.154 221.545 189.237 221.545 173.22C221.545 157.203 211.11 144.285 198.177 144.415C185.391 144.415 174.956 157.332 174.956 173.349Z" fill="#F48767"/>
<path d="M198.322 192.337C206.847 192.337 213.607 183.811 213.607 173.219C213.607 162.627 206.7 154.231 198.175 154.231C189.651 154.231 182.891 162.756 182.891 173.348C182.891 183.94 189.798 192.337 198.322 192.337ZM198.322 161.981C203.319 161.981 207.434 167.019 207.434 173.219C207.434 179.419 203.319 184.586 198.322 184.586C193.325 184.586 189.21 179.549 189.21 173.348C189.21 167.019 193.178 161.981 198.322 161.981Z" fill="#F7A58D"/>
<path d="M198.323 208.483C214.048 208.483 226.687 192.595 226.687 173.219C226.687 153.844 213.901 137.956 198.176 137.956C182.45 137.956 169.811 153.844 169.811 173.219C169.811 192.595 182.744 208.613 198.323 208.483ZM198.176 144.414C211.109 144.414 221.544 157.331 221.544 173.219C221.544 189.237 211.256 202.154 198.323 202.154C185.389 202.154 174.954 189.237 174.954 173.349C174.954 157.331 185.389 144.414 198.176 144.414Z" fill="#F7A58D"/>
<path d="M194.354 173.22C194.354 170.507 196.118 168.44 198.176 168.44C200.233 168.44 201.997 170.636 202.144 173.22C202.144 175.932 200.38 177.999 198.323 177.999C196.118 178.128 194.354 175.932 194.354 173.22Z" fill="#F48766"/>
<path d="M31.6605 173.607C31.6605 193.112 19.0212 208.871 3.29555 208.871H-25.0694V196.987C-35.5042 196.987 -44.0283 186.524 -44.0283 173.607C-44.0283 160.69 -35.6511 150.227 -25.2163 150.227V138.343H3.14857C18.8742 138.343 31.6605 154.102 31.6605 173.607Z" fill="black"/>
<path d="M390.704 76.5993C390.704 77.116 391.145 77.5035 391.586 77.6326C392.762 77.891 397.171 77.891 398.493 77.5035C399.081 77.3743 399.669 76.9868 399.669 76.3409C400.11 66.0072 400.11 55.9318 399.669 46.3731C399.669 45.7272 399.081 45.3397 398.493 45.2105C397.024 44.823 391.88 44.5646 390.263 45.0813C389.675 45.2105 389.235 45.7272 389.235 46.2439C388.941 56.061 389.381 66.1364 390.704 76.5993Z" fill="#F69276"/>
<path d="M383.504 85.7701C383.651 85.7701 383.798 85.7701 384.092 85.641L394.086 81.2491C396.438 80.2157 397.907 78.149 397.907 75.8239L397.76 43.4017C397.76 42.11 396.585 41.0767 395.115 41.0767H367.632C366.897 41.0767 366.456 41.5933 366.456 42.11C366.456 42.7559 367.044 43.1434 367.632 43.1434H395.115C395.262 43.1434 395.262 43.2726 395.262 43.2726L395.409 75.6947C395.409 77.2448 394.38 78.5365 392.91 79.1824L382.917 83.5742C382.329 83.8326 382.035 84.4784 382.329 84.9951C382.623 85.641 383.064 85.7701 383.504 85.7701Z" fill="#F69276"/>
<path d="M163.492 127.105C163.492 127.105 167.313 127.105 173.192 127.105H196.56C214.049 127.105 218.164 134.726 228.893 153.456L262.843 153.326C262.843 153.326 262.843 151.131 262.843 147.385L392.469 147.126C393.057 137.697 394.233 118.579 394.233 100.495C394.233 99.8494 394.233 99.3327 394.233 98.6868C394.233 93.5199 393.204 87.8364 391.44 82.1528C384.533 59.9353 367.044 36.2968 359.842 27.6423C357.491 24.8005 355.433 22.3463 353.669 20.1504C348.672 14.3376 345.292 11.3667 338.973 11.3667L181.863 11.7542C178.63 11.7542 175.691 13.6918 174.809 16.4044C161.288 60.0645 163.345 93.2616 163.492 127.105ZM295.911 27.1256C295.764 26.4798 296.352 25.9631 297.087 25.9631L344.851 25.8339C347.644 25.8339 350.436 27.1257 352.2 29.3216C370.865 51.6683 378.36 72.0774 381.153 83.8321L384.092 96.2326C384.533 98.041 383.21 99.4619 381.153 99.4619H369.542C367.631 99.4619 365.574 98.6868 364.104 97.3951L340.295 77.3735C337.65 75.1775 334.123 73.8859 330.742 73.8859H302.23L295.911 27.1256Z" fill="#F36F49"/>
<path d="M271.219 82.541C272.248 86.6745 273.423 90.9372 274.452 95.4583C275.187 98.5584 278.273 100.754 281.801 100.883C328.243 102.304 366.748 102.434 394.231 100.625C394.231 99.9793 394.231 99.4626 394.231 98.8167C394.231 93.6498 393.203 87.9663 391.439 82.2827L271.219 82.541Z" fill="#F6977C"/>
<path d="M185.389 26.0926L233.154 25.9634C235.946 25.9634 238.445 27.2551 239.767 29.451C253.142 51.7978 255.934 72.2069 255.934 83.9616V96.3621C255.934 98.1705 254.317 99.5914 252.26 99.5914H240.649C238.739 99.5914 236.828 98.8164 235.652 97.5246L216.546 77.503C214.342 75.3071 211.256 73.8862 207.875 74.0154H179.363L183.919 27.2551C183.919 26.6092 184.507 26.0926 185.389 26.0926Z" fill="#F36F49"/>
<path d="M163.492 127.105C163.492 127.105 167.313 127.105 173.192 127.105H196.56C214.049 127.105 218.164 134.726 228.893 153.456L262.843 153.326C262.843 153.326 262.843 151.131 262.843 147.385L392.469 147.126C393.057 137.697 394.233 118.579 394.233 100.495C366.75 102.304 328.097 102.304 281.802 100.754C278.275 100.624 275.188 98.4285 274.453 95.3284C273.425 90.8074 272.249 86.4155 271.22 82.4112C264.9 58.7728 257.993 41.8512 248.881 23.5088C248.146 22.088 249.322 20.4087 251.085 20.4087L353.669 20.1504C348.672 14.3376 345.292 11.3667 338.973 11.3667L181.863 11.7542C178.63 11.7542 175.691 13.6918 174.809 16.4044C161.288 60.0645 163.345 93.2616 163.492 127.105ZM179.218 74.015L183.774 27.2548C183.774 26.609 184.509 26.0923 185.243 26.0923L233.008 25.9631C235.801 25.9631 238.299 27.2548 239.622 29.4508C252.996 51.7975 255.788 72.2066 255.788 83.9612V96.3617C255.788 98.1701 254.172 99.591 252.114 99.591H240.504C238.593 99.591 236.682 98.816 235.507 97.5243L216.401 77.5026C214.196 75.3067 211.11 73.8859 207.73 74.015H179.218Z" fill="#F7A58D"/>
<path d="M169.223 123.747C169.223 125.684 170.987 127.105 173.192 127.105H196.56C214.049 127.105 218.164 134.726 228.893 153.456L262.842 153.327C262.842 153.327 262.842 151.131 262.842 147.385L262.695 95.0705C262.695 69.1069 257.405 52.7021 243.443 26.7386C241.385 22.8634 236.829 20.4092 231.979 20.4092L181.422 20.5383C180.246 20.5383 179.364 21.1842 179.07 22.0884C169.076 55.4147 169.076 109.667 169.223 123.747ZM179.217 74.0155L183.773 27.2553C183.773 26.6094 184.508 26.0927 185.243 26.0927L233.008 25.9636C235.8 25.9636 238.299 27.2553 239.621 29.4512C252.996 51.7979 255.788 72.2071 255.788 83.9617V96.3622C255.788 98.1706 254.171 99.5915 252.114 99.5915H240.503C238.593 99.5915 236.682 98.8165 235.506 97.5247L216.4 77.5031C214.196 75.3072 211.11 73.8863 207.729 74.0155H179.217Z" fill="#F58A6B"/>
<path d="M185.683 27.6426L233.154 27.5135C235.211 27.5135 237.122 28.5468 238.151 30.0969C251.966 53.2187 254.17 73.757 254.17 83.8324V96.2329C254.17 97.1371 253.288 97.9122 252.26 97.9122H240.649C239.18 97.9122 237.857 97.3955 236.975 96.4913L217.869 76.4696C215.371 73.8862 211.696 72.3361 207.728 72.3361H181.274L185.683 27.6426ZM185.389 26.0926C184.654 26.0926 183.919 26.6092 183.919 27.2551L179.363 74.0154H207.875C211.256 74.0154 214.342 75.3071 216.546 77.503L235.652 97.5246C236.828 98.8164 238.739 99.5914 240.649 99.5914H252.26C254.317 99.5914 255.934 98.1705 255.934 96.3621V83.9616C255.934 72.2069 253.142 51.7978 239.767 29.451C238.445 27.2551 235.946 25.9634 233.154 25.9634L185.389 26.0926Z" fill="#F7A58D"/>
<path d="M262.697 122.713V147.385L313.989 147.256C313.401 140.797 312.079 134.597 309.874 128.784C308.992 126.459 306.788 124.78 303.995 124.392C292.679 123.23 278.276 122.713 262.697 122.713ZM366.457 147.256H391.883C392.324 141.83 392.764 133.047 393.205 123.1C387.033 123.359 381.301 123.875 376.157 124.521C373.365 124.909 371.16 126.588 370.278 128.913C368.221 134.597 367.045 140.797 366.457 147.256Z" fill="#F6977C"/>
<path d="M262.843 172.186L381.74 171.928C389.823 171.928 396.437 166.115 396.437 159.011V156.815C396.437 154.748 394.527 153.198 392.322 153.198L262.99 153.456L262.843 172.186Z" fill="#F6977C"/>
<path d="M240.945 172.187H262.843V153.457H229.188L232.862 166.503C233.744 169.861 237.124 172.187 240.945 172.187Z" fill="#F7A58D"/>
<path d="M188.623 103.855C193.62 103.984 203.32 104.888 203.32 107.988C203.32 111.088 194.796 112.122 187.888 112.122C180.981 112.122 180.246 108.763 179.658 107.342C179.217 105.921 178.776 103.725 188.623 103.855Z" fill="#F6977C"/>
<path d="M189.065 107.213C186.713 107.213 184.215 106.567 183.039 105.534C183.921 105.146 185.244 104.759 187.301 104.759C191.122 104.759 197.295 105.146 200.528 106.438C200.087 106.696 198.912 107.213 197.001 107.213C194.65 107.213 191.563 107.213 189.065 107.213Z" fill="#F47B58"/>
<path d="M198.912 109.667C199.794 109.667 200.235 109.797 200.382 109.926C197.736 110.959 192.886 111.347 190.535 111.347C187.155 111.347 184.803 111.347 184.068 110.701C184.656 110.313 185.979 109.667 187.302 109.667C189.065 109.797 197.736 109.667 198.912 109.667Z" fill="#F47B58"/>
<path d="M262.843 147.514C262.843 151.26 262.843 153.456 262.843 153.456L392.028 153.198C392.028 153.198 392.175 151.002 392.469 147.256L262.843 147.514Z" fill="#F58A6B"/>
<g opacity="0.2">
<path d="M318.545 121.421V146.093L361.901 145.964V121.292C361.901 118.321 358.814 115.996 354.993 115.996H325.305C321.631 116.125 318.545 118.58 318.545 121.421Z" fill="#F16036"/>
</g>
<path d="M376.45 145.189H385.562C387.914 145.189 389.971 143.51 389.971 141.314V137.31C389.971 135.243 388.061 133.435 385.562 133.435H376.45C374.099 133.435 372.041 135.114 372.041 137.31V141.314C372.041 143.51 374.099 145.189 376.45 145.189Z" fill="white"/>
<path d="M290.177 145.448H299.289C301.64 145.448 303.698 143.769 303.698 141.573V137.569C303.698 135.502 301.787 133.693 299.289 133.693H290.177C287.825 133.693 285.768 135.373 285.768 137.569V141.573C285.768 143.64 287.678 145.448 290.177 145.448Z" fill="white"/>
<path d="M231.391 76.858C231.391 77.3746 231.832 77.7622 232.273 77.8913C238.004 78.408 244.03 78.408 250.203 77.7622C250.938 77.633 251.379 77.2455 251.379 76.5996C251.819 66.2659 251.819 56.1905 251.379 46.6318C251.379 45.9859 250.791 45.5984 250.203 45.4693C243.883 44.8234 237.563 44.8234 230.95 45.4693C230.362 45.5984 229.921 46.1151 229.921 46.6318C229.48 56.3197 230.068 66.395 231.391 76.858Z" fill="#F7A58D"/>
<path d="M254.17 86.0289C254.611 86.0289 255.052 85.7706 255.199 85.3831C255.493 84.8664 255.199 84.2205 254.611 83.9622L244.618 79.6995C243.148 79.0536 242.119 77.6327 242.119 76.2118L241.972 43.7897C241.972 43.6605 242.119 43.6605 242.119 43.6605H248.292C249.027 43.6605 249.467 43.1438 249.467 42.6271C249.467 41.9813 248.88 41.5938 248.292 41.5938H242.119C240.649 41.5938 239.474 42.6271 239.474 43.9188L239.621 76.341C239.621 78.6661 241.09 80.7329 243.442 81.7663L253.436 86.0289C253.877 86.0289 254.024 86.0289 254.17 86.0289Z" fill="#F69276"/>
<path d="M321.575 173.716L363.167 173.636L363.14 162.657L321.548 162.736L321.575 173.716Z" fill="#F8B4A0"/>
<path opacity="0.6" d="M248.597 23.9C257.71 42.2424 264.47 59.1639 270.937 82.8023L391.157 82.544C384.249 60.3264 366.76 36.688 359.559 28.0335C357.207 25.1917 355.15 22.7374 353.386 20.5415L250.802 20.7999C249.038 20.929 247.863 22.4791 248.597 23.9Z" fill="url(#paint0_linear)"/>
<path d="M-46.083 173.736C-46.083 189.754 -35.6482 202.671 -22.715 202.542C-9.78176 202.542 0.506046 189.624 0.506046 173.607C0.506046 157.59 -9.92874 144.673 -22.862 144.802C-35.7952 144.802 -46.083 157.719 -46.083 173.736Z" fill="black"/>
<path d="M-22.7166 209C-6.99095 209 5.64835 193.112 5.64835 173.736C5.64835 154.231 -7.13793 138.472 -22.8636 138.472C-38.5892 138.472 -51.2285 154.36 -51.2285 173.736C-51.2285 193.241 -38.4422 209 -22.7166 209ZM-22.8636 144.802C-9.93033 144.802 0.504451 157.719 0.504451 173.607C0.504451 189.495 -9.78336 202.541 -22.7166 202.541C-35.6498 202.541 -46.0846 189.624 -46.0846 173.736C-46.0846 157.848 -35.7968 144.802 -22.8636 144.802Z" fill="#424242"/>
<path d="M144.325 185.603C142.427 176.862 139.297 168.596 135.123 160.995C134.554 159.949 133.889 158.809 133.225 157.764C128.387 149.688 122.411 142.467 115.485 136.196C114.632 135.341 113.683 134.581 112.734 133.821C105.335 127.645 96.8916 122.61 87.7844 118.999C86.646 118.524 85.5077 118.144 84.3693 117.764C75.2621 114.534 65.396 112.729 55.2453 112.539C54.6761 112.539 54.012 112.539 53.4428 112.539C52.8736 112.539 52.2096 112.539 51.6404 112.539C41.3948 112.729 31.6236 114.534 22.5164 117.764C21.378 118.144 20.2396 118.619 19.1012 118.999C9.99404 122.61 1.55091 127.645 -5.84866 133.821C-6.79733 134.581 -7.74598 135.436 -8.59978 136.196C-15.525 142.467 -21.5965 149.688 -26.3398 157.764C-27.0039 158.809 -27.5731 159.949 -28.2371 160.995C-32.4113 168.596 -35.5418 176.862 -37.4392 185.603C-37.7237 186.838 -37.9135 188.073 -38.1981 189.308C-39.1468 194.629 -39.6211 200.044 -39.6211 205.555H146.412C146.412 200.044 145.938 194.534 144.989 189.308C144.799 188.073 144.609 186.838 144.325 185.603Z" fill="#FCDDD4"/>
<defs>
<linearGradient id="paint0_linear" x1="304.679" y1="0.781219" x2="350.638" y2="126.137" gradientUnits="userSpaceOnUse">
<stop stop-color="#F7A58D"/>
<stop offset="0.926161" stop-color="white"/>
</linearGradient>
</defs>
</svg>
