<?xml version="1.0" standalone="no"?>
<!DOCTYPE svg PUBLIC "-//W3C//DTD SVG 20010904//EN"
 "http://www.w3.org/TR/2001/REC-SVG-20010904/DTD/svg10.dtd">
<svg version="1.0" xmlns="http://www.w3.org/2000/svg"
 width="75.000000pt" height="75.000000pt" viewBox="0 0 75.000000 75.000000"
 preserveAspectRatio="xMidYMid meet">
<metadata>
Created by potrace 1.11, written by Peter Selinger 2001-2013
</metadata>
<g transform="translate(0.000000,75.000000) scale(0.100000,-0.100000)"
fill="#000000" stroke="none">
<path d="M240 703 c5 -2 10 -9 10 -14 0 -6 -4 -7 -10 -4 -5 3 -10 2 -10 -3 0
-6 6 -12 14 -15 9 -4 13 2 12 16 -1 11 -7 22 -14 23 -7 1 -8 0 -2 -3z"/>
<path d="M187 673 c-3 -8 -2 -31 6 -83 2 -14 0 -33 -5 -42 -9 -19 -1 -48 14
-48 6 0 5 7 -2 15 -7 9 -11 16 -9 18 40 23 49 26 49 17 0 -6 -7 -13 -15 -16
-8 -4 -12 -11 -9 -16 4 -6 10 -4 16 6 5 9 14 14 20 10 6 -4 6 1 -1 14 -14 27
-14 35 2 26 6 -4 4 2 -5 13 -21 23 -24 40 -4 24 10 -9 13 -7 12 8 -1 25 -35
51 -55 43 -9 -3 -12 -1 -7 6 4 7 5 12 2 12 -3 0 -6 -3 -9 -7z m49 -33 c8 0 14
-5 14 -11 0 -5 -4 -8 -9 -4 -14 8 -25 -15 -13 -27 8 -8 8 -17 1 -30 -14 -27
-27 -22 -23 9 1 15 -2 33 -8 40 -7 9 -7 18 3 29 8 10 15 12 17 5 2 -6 10 -11
18 -11z"/>
<path d="M144 619 c-4 -7 -3 -9 4 -5 6 3 15 -2 21 -11 6 -10 11 -13 11 -7 0
20 -27 37 -36 23z"/>
<path d="M116 584 c-3 -9 -4 -20 0 -25 3 -5 0 -9 -5 -9 -6 0 -11 5 -11 11 0 7
-9 0 -20 -14 -11 -14 -20 -29 -20 -33 0 -5 7 2 16 14 15 22 17 22 40 7 13 -8
24 -11 24 -5 0 5 -4 10 -9 10 -10 0 -7 32 4 50 3 6 2 10 -3 10 -6 0 -13 -7
-16 -16z"/>
<path d="M146 585 c-6 -17 2 -45 14 -45 10 0 22 31 15 38 -3 3 -5 0 -5 -6 0
-7 -5 -12 -11 -12 -6 0 -8 9 -4 20 7 23 0 27 -9 5z"/>
<path d="M80 508 c-10 -21 -10 -21 3 -5 14 17 33 24 23 9 -3 -5 1 -9 9 -9 11
0 12 4 4 14 -16 19 -27 16 -39 -9z"/>
<path d="M150 521 c0 -5 7 -11 14 -14 10 -4 13 -1 9 9 -6 15 -23 19 -23 5z"/>
<path d="M236 503 c-6 -14 -5 -15 5 -6 7 7 10 15 7 18 -3 3 -9 -2 -12 -12z"/>
<path d="M264 491 c-9 -9 -4 -481 5 -481 5 0 11 4 13 9 2 5 59 68 128 141 69
73 142 151 164 174 21 23 59 64 85 91 26 28 50 55 53 60 6 10 -438 16 -448 6z"/>
</g>
</svg>
